<svg width="113" height="97" viewBox="0 0 113 97" fill="none" xmlns="http://www.w3.org/2000/svg">
<path d="M65.25 73.875C65.1667 74.2917 65.2083 74.6667 65.375 75C65.625 75.25 65.75 75.5833 65.75 76C66.0833 76.75 66.1667 77.125 66 77.125C65.9167 77.125 65.875 77.2083 65.875 77.375C65.5417 77.375 65.2917 77.2917 65.125 77.125C65.0417 77.0417 64.8333 77.0417 64.5 77.125C63.5833 76.5417 62.9583 76.3333 62.625 76.5C62.2917 76.6667 61.9583 76.625 61.625 76.375C60.7083 76.5417 60.1667 76.5 60 76.25C59.9167 76.0833 59.7917 75.9167 59.625 75.75C58.4583 76.3333 57.2083 76.625 55.875 76.625C55.125 76.375 54.625 76.25 54.375 76.25C54.125 76.3333 53.8333 76.375 53.5 76.375C52.3333 76.7083 51.75 76.5833 51.75 76C51.75 75.5 51.7917 75.0417 51.875 74.625C51.4583 73.7083 51.2917 73.2083 51.375 73.125C51.4583 73.0417 51.5 72.9167 51.5 72.75C51.3333 72.3333 51.1667 72 51 71.75C50.8333 71.5 50.75 71.1667 50.75 70.75C50.5833 70.5 50.4583 70.2917 50.375 70.125C50.2917 69.875 50.2083 69.625 50.125 69.375C49.7083 68.375 49.5417 67.7917 49.625 67.625C49.7917 67.4583 49.875 67.25 49.875 67C49.5417 66.0833 49.2917 65.5417 49.125 65.375C49.0417 65.125 49 64.9167 49 64.75C48.9167 63.9167 48.7917 63.5417 48.625 63.625C48.4583 63.625 48.2917 63.5417 48.125 63.375C47.9583 62.7083 47.9583 62.2917 48.125 62.125C48.2917 61.875 48.4167 61.625 48.5 61.375C48.3333 61.2083 48.2083 61 48.125 60.75C48.125 60.5 48.0417 60.2917 47.875 60.125C47.4583 59.7917 47.125 59.4583 46.875 59.125C46.625 58.7917 46.4583 58.2917 46.375 57.625C46.2917 56.625 46.2083 55.9583 46.125 55.625C46.125 55.2917 46.2083 54.9583 46.375 54.625C45.9583 54.625 45.5417 54.7083 45.125 54.875C44.7917 54.9583 44.3333 55 43.75 55C42.6667 54.9167 41.9167 54.875 41.5 54.875C41.0833 54.875 40.5417 54.875 39.875 54.875C39.125 54.7917 38.5833 54.75 38.25 54.75C37.9167 54.75 37.6667 54.625 37.5 54.375C37.0833 54.5417 36.7083 54.6667 36.375 54.75C36.0417 54.8333 35.6667 54.8333 35.25 54.75C34.4167 55.1667 33.9583 55.3333 33.875 55.25C33.7917 55.1667 33.6667 55.125 33.5 55.125C33.3333 55.2917 33.2083 55.5 33.125 55.75C33.0417 56 32.9167 56.2083 32.75 56.375C32.9167 56.7083 32.9583 57.0417 32.875 57.375C32.7917 57.7083 32.7083 58 32.625 58.25C32.7917 59 32.875 59.4583 32.875 59.625C32.875 59.7917 32.8333 59.9583 32.75 60.125C32.5833 61.0417 32.4583 61.6667 32.375 62C31.7917 62.5833 31.375 63.2917 31.125 64.125C30.9583 64.5417 30.8333 64.9167 30.75 65.25C30.6667 65.5833 30.5417 65.9583 30.375 66.375C30.2083 67.5417 30 68.6667 29.75 69.75C29.5833 70.8333 29.5 71.9167 29.5 73C29.25 73.75 29.0417 74.1667 28.875 74.25C28.7917 74.25 28.7083 74.3333 28.625 74.5C28.5417 74.9167 28.4583 75.1667 28.375 75.25C28.2917 75.25 28.2917 75.4583 28.375 75.875C27.7083 76.4583 27.375 76.75 27.375 76.75C27.4583 76.8333 27.4583 76.9583 27.375 77.125C26.7917 77.625 26.4583 78.0417 26.375 78.375C26.375 78.7083 26.25 78.9583 26 79.125C25.5833 79.2083 25.2917 79.125 25.125 78.875C25.0417 78.625 24.875 78.5 24.625 78.5C24.0417 78.6667 23.5833 79 23.25 79.5C22.9167 80 22.4167 80.1667 21.75 80C21.5833 80.25 21.4167 80.7917 21.25 81.625C20.5833 81.9583 19.875 82.2083 19.125 82.375C18.4583 82.625 17.8333 82.9583 17.25 83.375C17.0833 83.2917 16.8333 83.25 16.5 83.25C16.25 83.3333 16.0417 83.375 15.875 83.375C15.7083 83.5417 15.625 83.75 15.625 84C15.7083 84.3333 15.75 84.6667 15.75 85C15 85.3333 14.375 85.4167 13.875 85.25C13.2917 85.5 13.0833 86.1667 13.25 87.25C12.6667 88.0833 11.7917 88.4167 10.625 88.25C10.2083 89 9.91667 89.4583 9.75 89.625C9.58333 89.7917 9.29167 89.8333 8.875 89.75C8.45833 90 8.16667 90.2917 8 90.625C7.75 91.0417 7.41667 91.375 7 91.625C6.5 91.7083 6.20833 91.8333 6.125 92C6.04167 92.1667 5.91667 92.3333 5.75 92.5C5.33333 92.8333 4.95833 93.125 4.625 93.375C4.20833 93.7083 3.79167 94 3.375 94.25C2.625 95.1667 2.20833 95.7083 2.125 95.875C2.04167 96.125 1.875 96.3333 1.625 96.5C1.04167 95.8333 0.875 95.375 1.125 95.125C1.29167 94.875 1.45833 94.5833 1.625 94.25C2.20833 93.3333 2.58333 92.8333 2.75 92.75C2.83333 92.6667 2.91667 92.5417 3 92.375C3.16667 92.2083 3.29167 91.9583 3.375 91.625C3.375 91.375 3.45833 91.125 3.625 90.875C4.70833 89.875 5.5 88.9167 6 88C6.5 87.0833 6.875 86.0417 7.125 84.875C7.54167 83.5417 7.91667 82.75 8.25 82.5C8.5 81.3333 8.79167 80.625 9.125 80.375C9.375 80.125 9.58333 79.8333 9.75 79.5V77.75C10.1667 77.5833 10.5833 77.4167 11 77.25C11.3333 77.1667 11.7083 77.0417 12.125 76.875C12.4583 76.2083 12.8333 75.5833 13.25 75C13.75 74.3333 14.125 73.5417 14.375 72.625C14.7917 72.2083 15.125 71.75 15.375 71.25C15.5417 70.8333 15.4583 70.5 15.125 70.25C14.7917 70 14.7083 69.6667 14.875 69.25C14.875 68.9167 15.0417 68.7083 15.375 68.625C15.7917 68.4583 16.125 68.2917 16.375 68.125C16.625 67.375 16.8333 66.9167 17 66.75C17 66.25 17.0417 65.75 17.125 65.25C17.2083 64.75 17.4167 64.3333 17.75 64C17.6667 63.5 17.75 63 18 62.5C18 61 18.0417 59.6667 18.125 58.5C18.2917 57.25 18.6667 56.2917 19.25 55.625C19.1667 54.125 19.2917 53.125 19.625 52.625C20.0417 52.125 20.3333 51.5833 20.5 51C20.5 50.6667 20.4167 50.4167 20.25 50.25C20.1667 50 20.0833 49.7917 20 49.625C20.1667 48.9583 20.5 48.4583 21 48.125C21.5 47.7083 21.9167 47.25 22.25 46.75C22.1667 46 22.2917 45.375 22.625 44.875C23.0417 44.2917 23.2917 43.6667 23.375 43C23.2083 41.75 23.1667 40.9167 23.25 40.5C23.4167 40 23.5 39.5 23.5 39C24.0833 38.25 24.3333 37.8333 24.25 37.75C24.25 37.6667 24.25 37.5417 24.25 37.375C24.5 37.0417 24.6667 36.625 24.75 36.125C24.8333 35.5417 25 35.0417 25.25 34.625C25.3333 33.625 25.2917 32.7083 25.125 31.875C25.4583 31.5417 25.75 31.125 26 30.625C26.25 30.125 26.5 29.625 26.75 29.125C26 28.7083 25.75 28.0417 26 27.125C26.3333 26.9583 26.5833 26.75 26.75 26.5C26.9167 26.1667 27.0833 25.875 27.25 25.625C27.0833 24.9583 27.125 24.5 27.375 24.25C27.625 24 27.6667 23.6667 27.5 23.25C27.6667 22.8333 27.8333 22.4583 28 22.125C28.1667 21.7083 28.2083 21.2083 28.125 20.625C28.2083 20.2083 28.3333 19.875 28.5 19.625C28.6667 19.2917 28.7083 18.875 28.625 18.375C28.7917 18.2083 28.9583 18.0417 29.125 17.875C29.375 17.625 29.5 17.2917 29.5 16.875C29.4167 16.625 29.3333 16.4167 29.25 16.25C29.1667 16 29.0833 15.7083 29 15.375C29.3333 14.375 29.4167 13.8333 29.25 13.75C29.0833 13.5833 29 13.4167 29 13.25C29.1667 13 29.2917 12.7917 29.375 12.625C29.4583 12.4583 29.4167 12.1667 29.25 11.75C29 11.5833 28.7083 11.4167 28.375 11.25C28.125 11.0833 27.875 10.9167 27.625 10.75C27.4583 10.25 27.4583 9.83333 27.625 9.5C27.875 9.16667 28.0833 8.79167 28.25 8.375C27.75 7.625 27.4167 7.25 27.25 7.25C27.1667 7.16667 27.0417 7.125 26.875 7.125C26.125 6.54167 25.6667 5.95833 25.5 5.375C24.6667 5.20833 24 5.04167 23.5 4.875C23.8333 4.125 24.25 3.75 24.75 3.75C25.3333 3.75 25.7917 3.58333 26.125 3.25C27.875 2.75 29.9167 2.58333 32.25 2.75C32.75 3.08333 33.1667 3.29167 33.5 3.375C33.9167 3.45833 34.25 3.45833 34.5 3.375C34.75 3.20833 35.0833 3.04167 35.5 2.875C36.0833 3.04167 36.5833 3 37 2.75C37.4167 2.41667 37.9583 2.33333 38.625 2.5C39.2917 3 39.7083 3.20833 39.875 3.125C40.0417 2.95833 40.2083 2.83333 40.375 2.75C41.125 2.91667 41.6667 3 42 3C42.4167 3 42.7083 3.08333 42.875 3.25C43.125 3.08333 43.375 2.95833 43.625 2.875C43.9583 2.70833 44.2917 2.54167 44.625 2.375C45.0417 2.54167 45.3333 2.75 45.5 3C45.75 3.25 46.0417 3.45833 46.375 3.625C46.2083 4.29167 46.2083 4.79167 46.375 5.125C46.625 5.45833 46.8333 5.83333 47 6.25C46.9167 6.58333 46.8333 6.83333 46.75 7C46.6667 7.16667 46.5833 7.375 46.5 7.625C47.0833 8.29167 47.5417 8.79167 47.875 9.125C47.875 9.79167 47.75 10.2917 47.5 10.625C47.8333 11.2083 48.0417 11.875 48.125 12.625C48.2083 13.375 48.4583 13.9583 48.875 14.375C48.875 14.7917 48.9167 15.125 49 15.375C49.1667 15.625 49.25 15.9167 49.25 16.25C49.3333 17.0833 49.3333 17.5417 49.25 17.625C49.1667 17.625 49.125 17.7083 49.125 17.875C49.375 18.2083 49.5833 18.5833 49.75 19C49.9167 19.3333 50 19.8333 50 20.5C50.75 21.4167 51.0417 21.9583 50.875 22.125C50.9583 22.7917 51.0417 23.375 51.125 23.875C51.2917 24.375 51.5417 24.8333 51.875 25.25C51.875 26.0833 51.9583 26.7917 52.125 27.375C52.2917 27.9583 52.4583 28.5417 52.625 29.125C53.2083 29.0417 53.5417 28.9583 53.625 28.875C53.7917 28.7083 53.9583 28.625 54.125 28.625C54.5417 29.2917 54.625 29.7083 54.375 29.875C54.125 29.9583 53.9583 30.125 53.875 30.375C53.9583 31.2917 53.9167 31.8333 53.75 32C53.9167 32.4167 53.9167 32.875 53.75 33.375C53.6667 33.875 53.75 34.3333 54 34.75C54.0833 35 54.2083 35.25 54.375 35.5C54.625 35.6667 54.75 35.9583 54.75 36.375C55.5 37.0417 55.8333 37.6667 55.75 38.25C55.75 38.8333 55.6667 39.375 55.5 39.875C55.8333 40.7917 56.0417 41.3333 56.125 41.5C56.2083 41.5833 56.3333 41.6667 56.5 41.75C56.8333 42.1667 57.0833 42.6667 57.25 43.25C57.4167 43.8333 57.5833 44.375 57.75 44.875C57.9167 45.9583 58 46.6667 58 47C58.6667 48.25 58.9583 49.2083 58.875 49.875C58.875 50.2083 58.75 50.5 58.5 50.75C58.25 51 58.0833 51.2917 58 51.625C58.8333 51.7917 59.2917 52.0833 59.375 52.5C59.4583 53.5833 59.5833 54.375 59.75 54.875C59.9167 55.2917 59.9583 55.8333 59.875 56.5C60.0417 56.9167 60.1667 57.4167 60.25 58C60.3333 58.5 60.5 59.0417 60.75 59.625C60.9167 60.0417 61 60.4167 61 60.75C61.0833 61 61.0417 61.3333 60.875 61.75C61.0417 62.0833 61.2917 62.4167 61.625 62.75C61.9583 63.0833 61.9583 63.5 61.625 64C61.9583 65.25 62.4167 66.1667 63 66.75C63.1667 67.3333 63.3333 67.75 63.5 68C63.75 68.1667 63.9583 68.4167 64.125 68.75C64.125 69.0833 64.0833 69.375 64 69.625C63.9167 69.7917 63.8333 69.9583 63.75 70.125C63.9167 70.5417 64.0833 70.875 64.25 71.125C64.5 71.375 64.5833 71.8333 64.5 72.5C64.6667 72.6667 64.7917 72.9167 64.875 73.25C64.9583 73.5 65.0833 73.7083 65.25 73.875ZM44 43.375C43.8333 43.125 43.625 42.9167 43.375 42.75C43.2083 42.5 43.0417 42.1667 42.875 41.75C42.7917 41.1667 42.7917 40.75 42.875 40.5C42.9583 40.1667 43.0417 39.7917 43.125 39.375C42.4583 38.875 41.9167 38.3333 41.5 37.75C41.1667 37.1667 41.2083 36.4583 41.625 35.625L41 34.25C40.6667 33.75 40.5 33.2917 40.5 32.875C40 32.4583 39.875 31.875 40.125 31.125C39.9583 30.9583 39.8333 30.6667 39.75 30.25C39.75 29.75 39.8333 29.375 40 29.125C39.9167 28.2083 39.9167 27.4583 40 26.875C40.1667 26.2083 40.1667 25.6667 40 25.25C39.75 25.5 39.5833 25.7917 39.5 26.125C39.4167 26.375 39.2917 26.625 39.125 26.875C38.9583 27.7083 38.8333 28.375 38.75 28.875C38.6667 29.375 38.5417 29.8333 38.375 30.25C38.4583 30.6667 38.5 31.2917 38.5 32.125C38.3333 32.4583 38.125 32.75 37.875 33C37.625 33.25 37.375 33.5417 37.125 33.875C37.4583 34.2917 37.5417 34.7083 37.375 35.125C37.2083 35.4583 37 35.7917 36.75 36.125C37.0833 36.875 37.1667 37.375 37 37.625C36.8333 37.7917 36.75 38 36.75 38.25C36.5 38.9167 36.4583 39.5833 36.625 40.25C36.875 40.9167 36.875 41.5833 36.625 42.25C36.7917 42.8333 36.8333 43.375 36.75 43.875C36.75 44.2917 36.9583 44.5833 37.375 44.75C38.0417 44.6667 38.5417 44.4583 38.875 44.125C39.2083 43.7917 39.6667 43.6667 40.25 43.75C41.25 44.1667 41.9583 44.4167 42.375 44.5C42.875 44.5 43.4167 44.5 44 44.5V43.375ZM111.875 48.125C112.042 48.7917 112.208 49.3333 112.375 49.75C112.375 50.9167 112.25 52.0833 112 53.25C111.75 54.3333 111.792 55.3333 112.125 56.25C111.792 56.9167 111.375 57.5 110.875 58C110.458 58.5 110 59 109.5 59.5C109.5 59.8333 109.5 60.1667 109.5 60.5C109.583 60.8333 109.583 61.125 109.5 61.375C109.417 61.7917 109.25 62.0833 109 62.25C108.833 62.4167 108.667 62.6667 108.5 63L107.25 64.5C106.833 65.5 106.5 66.0833 106.25 66.25C106.083 66.4167 105.792 66.5 105.375 66.5C104.958 67.1667 104.75 68.0833 104.75 69.25C104 69.8333 103.5 70.2083 103.25 70.375C103 70.5417 102.667 70.7083 102.25 70.875C102 71.0417 101.792 71.25 101.625 71.5C101.458 71.75 101.167 71.9167 100.75 72C100.5 72.3333 100.25 72.6667 100 73C99.75 73.3333 99.5 73.7083 99.25 74.125C98.5 74.2083 98.0833 74.2083 98 74.125C97.9167 74.0417 97.75 73.9583 97.5 73.875C96.6667 74.375 96.0417 74.8333 95.625 75.25C95.4583 75.3333 95.25 75.4167 95 75.5C94.75 75.5 94.5 75.5833 94.25 75.75C93.9167 75.6667 93.6667 75.6667 93.5 75.75C93.3333 75.75 93.125 75.75 92.875 75.75C91.7083 75.8333 90.9167 75.8333 90.5 75.75C90.0833 75.5833 89.6667 75.4167 89.25 75.25C88.9167 75.4167 88.6667 75.625 88.5 75.875C88.3333 76.0417 88 76.2083 87.5 76.375C87.1667 76.2917 86.875 76.2083 86.625 76.125C86.375 76.0417 86.0833 75.9583 85.75 75.875C84.75 75.2917 84 75.0833 83.5 75.25C83.0833 75.3333 82.5833 75.2917 82 75.125C81.8333 74.7083 81.625 74.4167 81.375 74.25C81.125 74 80.875 73.75 80.625 73.5C80.375 73.5 80.125 73.5417 79.875 73.625C79.7083 73.625 79.5 73.625 79.25 73.625C78.8333 73.2083 78.25 73.0417 77.5 73.125C76.8333 73.2083 76.3333 73.0417 76 72.625C75.4167 71.875 74.9167 71.5417 74.5 71.625C74.1667 71.7083 73.75 71.7083 73.25 71.625C72.5833 71.2917 72.125 70.8333 71.875 70.25C71.625 69.5833 71.1667 69.0833 70.5 68.75C70.25 67.9167 70.1667 67.4583 70.25 67.375C70.3333 67.2083 70.375 67 70.375 66.75C70.2083 66.6667 69.9583 66.6667 69.625 66.75C69.375 66.75 69.125 66.7083 68.875 66.625C68.5417 66.2917 68.1667 66 67.75 65.75C67.4167 65.4167 67.125 65.0417 66.875 64.625C66.875 64.2917 66.9583 64.0417 67.125 63.875C67.2917 63.625 67.4167 63.375 67.5 63.125C66.75 62.7083 66.375 62.4167 66.375 62.25C66.4583 62.0833 66.5 61.9167 66.5 61.75C66 60.5833 65.6667 59.6667 65.5 59C64.9167 58.9167 64.625 58.7917 64.625 58.625C64.625 58.4583 64.5417 58.2917 64.375 58.125C64.7083 57.9583 65 57.875 65.25 57.875C65.5 57.875 65.7917 57.7917 66.125 57.625C66.0417 56.7083 66.0417 56.1667 66.125 56C66.375 55.5 66.75 55.2083 67.25 55.125C67.75 55.0417 68.1667 54.7917 68.5 54.375C68.5833 53.2083 68.875 52.6667 69.375 52.75C69.875 52.75 70.3333 52.5833 70.75 52.25C71 51.3333 71.25 50.875 71.5 50.875C71.75 50.7917 72 50.6667 72.25 50.5C73 49.3333 73.6667 48.5 74.25 48C74.9167 47.4167 75.5417 46.7083 76.125 45.875C76.5417 45.7083 77.125 45.5 77.875 45.25C78.625 44.9167 79.2083 44.7917 79.625 44.875C79.9583 45.0417 80.0417 45.25 79.875 45.5C79.7917 45.75 79.7917 46 79.875 46.25C79.375 47.1667 79.0833 47.7083 79 47.875C78.9167 48.0417 78.7917 48.2083 78.625 48.375C78.5417 48.625 78.5417 48.9167 78.625 49.25C78.7083 49.5 78.6667 49.7917 78.5 50.125C79.1667 50.375 79.5 50.7083 79.5 51.125C79.3333 51.4583 79.1667 51.7083 79 51.875C78.9167 51.9583 78.7917 52.2083 78.625 52.625C78.5417 53.125 78.5833 53.7917 78.75 54.625C78.5 55.2083 78.5 55.7083 78.75 56.125C79 56.5417 79.2083 57.0417 79.375 57.625C79.375 57.9583 79.3333 58.25 79.25 58.5C79.1667 58.6667 79.125 58.875 79.125 59.125C79.2917 59.5417 79.5 59.875 79.75 60.125C80.0833 60.375 80.3333 60.7083 80.5 61.125C80.4167 61.375 80.2917 61.625 80.125 61.875C80.0417 62.0417 80 62.3333 80 62.75C80.4167 62.9167 80.8333 62.8333 81.25 62.5C81.6667 62.1667 82.0833 62.125 82.5 62.375C82.6667 63.125 82.9167 63.2917 83.25 62.875C83.5833 62.4583 83.9583 62.4583 84.375 62.875C84.5417 63.2083 84.5417 63.4583 84.375 63.625C84.2083 63.7917 84.125 64 84.125 64.25C84.2083 64.5833 84.3333 64.7917 84.5 64.875C84.75 64.9583 85 65.0833 85.25 65.25C85.6667 65.25 85.9583 65.1667 86.125 65C86.2917 64.75 86.5833 64.625 87 64.625C87.4167 64.7083 87.75 64.8333 88 65C88.3333 65.1667 88.7917 65.2083 89.375 65.125C90.125 64.7917 90.5417 64.5833 90.625 64.5C90.7917 64.4167 90.9583 64.3333 91.125 64.25C91.5417 63.9167 91.9167 63.625 92.25 63.375C92.5833 63.125 92.9583 62.8333 93.375 62.5C93.9583 62.4167 94.2917 62.4583 94.375 62.625C94.4583 62.7083 94.5833 62.75 94.75 62.75C94.9167 62.5833 95.0417 62.375 95.125 62.125C95.2917 61.875 95.4583 61.6667 95.625 61.5C96.125 61.4167 96.625 61.2917 97.125 61.125C97.2917 60.7917 97.375 60.375 97.375 59.875C97.375 59.375 97.4583 58.9167 97.625 58.5C98.375 57.3333 98.7917 56.625 98.875 56.375C98.7917 55.7083 98.7917 55.1667 98.875 54.75C99.0417 54.25 99.0417 53.6667 98.875 53C99.625 52.25 99.9583 51.625 99.875 51.125C99.875 50.625 99.875 50.1667 99.875 49.75C99.7917 49.5 99.5833 49.375 99.25 49.375C98.9167 49.2917 98.6667 49.1667 98.5 49C98.3333 48.5833 98.2917 48.25 98.375 48C98.5417 47.75 98.625 47.4167 98.625 47C98.4583 46.6667 98.25 46.375 98 46.125C97.75 45.875 97.5 45.625 97.25 45.375C96.8333 45.375 96.5 45.3333 96.25 45.25C96 45.0833 95.75 44.9583 95.5 44.875C95.3333 44.375 95.0417 44 94.625 43.75C94.2917 43.4167 93.9167 43.0417 93.5 42.625C93.0833 42.7083 92.7083 42.7083 92.375 42.625C92.0417 42.4583 91.6667 42.4167 91.25 42.5C90.9167 42.1667 90.5417 41.875 90.125 41.625C89.7083 41.375 89.3333 41.0417 89 40.625C88.5833 40.4583 88.25 40.4167 88 40.5C87.75 40.5833 87.4583 40.6667 87.125 40.75C86.875 40.8333 86.5833 40.875 86.25 40.875C86 40.7917 85.75 40.7917 85.5 40.875C84.4167 39.875 83.4167 39.25 82.5 39C81.6667 38.75 80.9167 38.4167 80.25 38C79.6667 36.5833 78.9167 35.875 78 35.875C77.5 35.7083 77.0833 35.4583 76.75 35.125C76.5 34.7917 76.0417 34.5833 75.375 34.5C74.7917 33.9167 74.125 33.375 73.375 32.875C72.625 31.9583 72 31.1667 71.5 30.5C71.0833 29.6667 70.7083 29.0833 70.375 28.75C70.0417 28.3333 69.75 27.9167 69.5 27.5C69 27 68.7083 26.4583 68.625 25.875C68.375 24.4583 68.3333 23.375 68.5 22.625C68.75 21.7917 69.0417 21.0417 69.375 20.375C69.4583 19.5417 69.4583 18.75 69.375 18C69.375 17.25 69.5417 16.625 69.875 16.125C70.2917 14.2083 70.6667 12.75 71 11.75C71.4167 10.75 72.2083 10.0833 73.375 9.75C73.7917 9.08333 74.1667 8.41667 74.5 7.75C74.9167 7.08333 75.4583 6.54167 76.125 6.125C77.2083 5.70833 77.9583 5.29167 78.375 4.875C78.7917 4.45833 79.2083 4 79.625 3.5C80.2917 3.33333 80.8333 3.08333 81.25 2.75C81.6667 2.33333 82.125 1.95833 82.625 1.625C83.0417 1.70833 83.375 1.79167 83.625 1.875C83.9583 1.95833 84.2917 2.04167 84.625 2.125C85.0417 1.875 85.4167 1.625 85.75 1.375C86.1667 1.04167 86.7083 0.791667 87.375 0.625C87.875 1.20833 88.25 1.45833 88.5 1.375C88.75 1.29167 88.9583 1.33333 89.125 1.5C89.5417 1.33333 89.9167 1.16667 90.25 1C90.6667 0.833333 91.125 0.75 91.625 0.75C92.0417 0.916667 92.3333 1.16667 92.5 1.5C92.6667 1.75 92.875 2 93.125 2.25C93.7917 2.16667 94.2917 1.95833 94.625 1.625C94.9583 1.29167 95.4583 1.04167 96.125 0.875C96.4583 1.04167 96.7083 1.25 96.875 1.5C97.125 1.66667 97.4583 1.79167 97.875 1.875C98.2083 1.875 98.4583 1.83333 98.625 1.75C98.875 1.58333 99.1667 1.58333 99.5 1.75C100.417 2.33333 100.958 3.125 101.125 4.125H102.75C102.917 4.375 103.083 4.66667 103.25 5C103.417 5.33333 103.625 5.625 103.875 5.875C104.292 5.95833 104.667 6.04167 105 6.125C105.333 6.20833 105.583 6.45833 105.75 6.875C105.75 7.70833 105.875 8.125 106.125 8.125C106.375 8.125 106.583 8.20833 106.75 8.375C107.333 8.875 107.75 9.16667 108 9.25C108.25 9.25 108.458 9.25 108.625 9.25C108.792 9.66667 108.875 10.125 108.875 10.625C108.958 11.0417 109.042 11.4583 109.125 11.875C109.625 12.2917 109.875 12.7083 109.875 13.125C109.458 13.2917 108.958 13.7083 108.375 14.375C107.792 15.0417 107.583 15.5833 107.75 16L107 18C106.583 18.8333 106.208 19.4167 105.875 19.75C105.542 20 105.208 20.2083 104.875 20.375C104.792 21.375 104.292 22.0833 103.375 22.5L102.5 24C102.083 24.4167 101.667 24.875 101.25 25.375C100.833 25.7917 100.583 26.3333 100.5 27C100.25 27.1667 100 27.3333 99.75 27.5C99.5 27.5833 99.1667 27.5417 98.75 27.375C98.5833 27.125 98.4583 26.875 98.375 26.625C98.375 26.2917 98.5 25.9167 98.75 25.5C98.75 24.5833 98.875 24 99.125 23.75C99.4583 23.4167 99.625 23.0833 99.625 22.75C98.7917 22.25 98.3333 22 98.25 22C98.1667 21.9167 98.0833 21.7917 98 21.625C98 21.2083 98.0417 20.9167 98.125 20.75C98.2917 20.5833 98.2917 20.2917 98.125 19.875C98.0417 19.2083 98.0833 18.625 98.25 18.125C97.8333 17.9583 97.5833 17.7083 97.5 17.375C97.4167 17.0417 97.3333 16.7083 97.25 16.375C96.8333 15.7083 96.7083 15.2917 96.875 15.125C97.125 14.875 97.2083 14.5417 97.125 14.125C95.875 13.7917 95.0417 13.4583 94.625 13.125C94.2083 12.7917 93.7083 12.4583 93.125 12.125C92.7083 12.125 92.375 12.1667 92.125 12.25C91.875 12.3333 91.5417 12.375 91.125 12.375C90.7083 12.2083 90.5 11.75 90.5 11C89.6667 11.6667 89.1667 12.0833 89 12.25C88.8333 12.4167 88.5833 12.5417 88.25 12.625C87.0833 12.2083 86.2917 12.125 85.875 12.375C85.5417 12.625 85.1667 12.8333 84.75 13C84.1667 13.5833 83.7917 14.2083 83.625 14.875C83.625 15.625 83.6667 16.2083 83.75 16.625C83.5833 16.875 83.375 17.125 83.125 17.375C82.9583 17.5417 82.625 17.5833 82.125 17.5C81.9583 18 81.875 18.625 81.875 19.375C81.9583 20.0417 82.0833 20.5833 82.25 21C82.0833 21.5833 82.0417 21.9583 82.125 22.125C82.2083 22.2083 82.2917 22.3333 82.375 22.5C82.125 23.0833 82.1667 23.6667 82.5 24.25C82.8333 24.8333 82.875 25.4167 82.625 26C83.2083 26.3333 83.7917 26.5833 84.375 26.75C84.9583 26.9167 85.2917 27.375 85.375 28.125C85.7917 28.375 86.25 28.5 86.75 28.5C87.3333 28.5 87.8333 28.625 88.25 28.875C88.4167 29.375 88.75 29.75 89.25 30C89.75 30.1667 90.0833 30.5 90.25 31C91.4167 31 92.25 31.0833 92.75 31.25C93.3333 31.3333 94 31.3333 94.75 31.25C95.4167 31.4167 96 31.6667 96.5 32C97.0833 32.3333 97.6667 32.6667 98.25 33C98.5833 32.9167 98.8333 32.8333 99 32.75C99.25 32.6667 99.4583 32.625 99.625 32.625C100.125 32.625 100.5 32.8333 100.75 33.25C101 33.5833 101.25 33.875 101.5 34.125C102 34.125 102.333 34.25 102.5 34.5C102.75 34.75 103.083 34.9167 103.5 35C104.083 36 104.708 36.625 105.375 36.875C106.125 37.0417 106.792 37.3333 107.375 37.75C107.792 38.25 108.125 38.7917 108.375 39.375C108.625 39.9583 108.833 40.7083 109 41.625C109.333 42.0417 109.667 42.4583 110 42.875C110.417 43.2083 110.625 43.6667 110.625 44.25C110.875 45.3333 110.958 46.0417 110.875 46.375C110.792 46.7083 110.667 47.0833 110.5 47.5C110.667 47.6667 110.875 47.7917 111.125 47.875C111.458 47.875 111.708 47.9583 111.875 48.125Z" fill="#915EFF"/>
</svg>
